<svg xmlns="http://www.w3.org/2000/svg" viewBox="0 0 800 450" role="img"><defs><linearGradient id="bg" x2="0" y2="1"><stop stop-color="#e9f6f3"/><stop offset="1" stop-color="#f6f0e5"/></linearGradient></defs><rect width="800" height="450" fill="url(#bg)"/><path d="M0 392h800" stroke="#b4c9c2" stroke-width="5"/><path d="M80 90h140v115H80z" fill="#d8edf0" stroke="#b4d0d0" stroke-width="7"/><path d="M150 90v115m-70-58h140" stroke="#b4d0d0" stroke-width="5"/><rect x="144" y="295" width="474" height="25" rx="8" fill="#875c47"/><path d="M180 320v76m405-76v76" stroke="#875c47" stroke-width="20"/><g transform="translate(325 275)"><circle cx="0" cy="-70" r="24" fill="#f2c7a5"/><path d="M-25-41 Q0-53 25-41 L30 38 H-30Z" fill="#556b9f"/><path d="M-26 37 L-38 100 M26 37 L42 100" stroke="#25364a" stroke-width="16" stroke-linecap="round"/><path d="M-25-30 L-52 22 M25-30 L53 22" stroke="#f2c7a5" stroke-width="13" stroke-linecap="round"/></g><path d="M374 242l95 13-9 53-96-13z" fill="#faf4df" stroke="#8f7969" stroke-width="5"/><path d="M409 255l-7 43" stroke="#8f7969" stroke-width="4"/><circle cx="679" cy="132" r="37" fill="#f3cb72"/></svg>