<svg xmlns="http://www.w3.org/2000/svg" viewBox="0 0 800 450" role="img"><defs><linearGradient id="bg" x2="0" y2="1"><stop stop-color="#e9f6f3"/><stop offset="1" stop-color="#f6f0e5"/></linearGradient></defs><rect width="800" height="450" fill="url(#bg)"/><path d="M0 392h800" stroke="#b4c9c2" stroke-width="5"/><path d="M80 90h140v115H80z" fill="#d8edf0" stroke="#b4d0d0" stroke-width="7"/><path d="M150 90v115m-70-58h140" stroke="#b4d0d0" stroke-width="5"/><g transform="translate(265 280)"><circle cx="0" cy="-70" r="24" fill="#f2c7a5"/><path d="M-25-41 Q0-53 25-41 L30 38 H-30Z" fill="#b25d42"/><path d="M-26 37 L-38 100 M26 37 L42 100" stroke="#25364a" stroke-width="16" stroke-linecap="round"/><path d="M-25-30 L-52 22 M25-30 L53 22" stroke="#f2c7a5" stroke-width="13" stroke-linecap="round"/></g><path d="M340 288 Q425 205 464 263" fill="none" stroke="#4d9cb1" stroke-width="12"/><circle cx="430" cy="263" r="10" fill="#4d9cb1"/><rect x="490" y="316" width="115" height="71" rx="10" fill="#b86f4c"/><path d="M546 315v-143m0 96q-78-20-64-82 60 0 64 82m0-26q67-22 55-80-55 2-55 80" fill="#469478" stroke="#317459" stroke-width="9"/></svg>