<svg xmlns="http://www.w3.org/2000/svg" viewBox="0 0 800 450" role="img"><defs><linearGradient id="bg" x2="0" y2="1"><stop stop-color="#e9f6f3"/><stop offset="1" stop-color="#f6f0e5"/></linearGradient></defs><rect width="800" height="450" fill="url(#bg)"/><path d="M0 392h800" stroke="#b4c9c2" stroke-width="5"/><path d="M80 90h140v115H80z" fill="#d8edf0" stroke="#b4d0d0" stroke-width="7"/><path d="M150 90v115m-70-58h140" stroke="#b4d0d0" stroke-width="5"/><g transform="translate(290 270)"><circle cx="0" cy="-70" r="24" fill="#f2c7a5"/><path d="M-25-41 Q0-53 25-41 L30 38 H-30Z" fill="#25677a"/><path d="M-26 37 L-38 100 M26 37 L42 100" stroke="#25364a" stroke-width="16" stroke-linecap="round"/><path d="M-25-30 L-52 22 M25-30 L53 22" stroke="#f2c7a5" stroke-width="13" stroke-linecap="round"/></g><rect x="370" y="260" width="230" height="17" rx="8" fill="#9a694d"/><path d="M391 277v109m185-109v109" stroke="#694737" stroke-width="16"/><rect x="435" y="163" width="125" height="88" rx="9" fill="#283f57"/><rect x="445" y="173" width="105" height="66" fill="#9fd8e5"/><path d="M425 251h145" stroke="#283f57" stroke-width="12"/></svg>