<svg xmlns="http://www.w3.org/2000/svg" viewBox="0 0 800 450" role="img"><defs><linearGradient id="bg" x2="0" y2="1"><stop stop-color="#e9f6f3"/><stop offset="1" stop-color="#f6f0e5"/></linearGradient></defs><rect width="800" height="450" fill="url(#bg)"/><path d="M0 392h800" stroke="#b4c9c2" stroke-width="5"/><path d="M80 90h140v115H80z" fill="#d8edf0" stroke="#b4d0d0" stroke-width="7"/><path d="M150 90v115m-70-58h140" stroke="#b4d0d0" stroke-width="5"/><g transform="translate(257 276)"><circle cx="0" cy="-70" r="24" fill="#f2c7a5"/><path d="M-25-41 Q0-53 25-41 L30 38 H-30Z" fill="#d09b5d"/><path d="M-26 37 L-38 100 M26 37 L42 100" stroke="#25364a" stroke-width="16" stroke-linecap="round"/><path d="M-25-30 L-52 22 M25-30 L53 22" stroke="#f2c7a5" stroke-width="13" stroke-linecap="round"/></g><rect x="392" y="166" width="244" height="17" fill="#835c4c"/><rect x="392" y="247" width="244" height="17" fill="#835c4c"/><rect x="392" y="328" width="244" height="17" fill="#835c4c"/><path d="M409 162q23-53 47 0zm74 0q23-53 47 0zm75 0q23-53 47 0zM409 243q23-53 47 0zm74 0q23-53 47 0z" fill="#d1a464" stroke="#ad7c47" stroke-width="4"/><path d="M398 345v52m232-52v52" stroke="#835c4c" stroke-width="13"/></svg>